<mxfile host="app.diagrams.net" modified="2024-04-29T06:56:02.119Z" agent="Mozilla/5.0 (Macintosh; Intel Mac OS X 10_15_7) AppleWebKit/537.36 (KHTML, like Gecko) Chrome/123.0.0.0 Safari/537.36 OPR/109.0.0.0" etag="DIA4dVqhMLsZe-7UF1DD" version="24.3.1" type="google">
  <diagram name="Page-1" id="929967ad-93f9-6ef4-fab6-5d389245f69c">
    <mxGraphModel grid="1" page="1" gridSize="10" guides="1" tooltips="1" connect="1" arrows="1" fold="1" pageScale="1.5" pageWidth="1169" pageHeight="826" background="none" math="0" shadow="0">
      <root>
        <mxCell id="0" style=";html=1;" />
        <mxCell id="1" style=";html=1;" parent="0" />
        <mxCell id="1672d66443f91eb5-23" value="SWEN20003 Project 2A: Shadow Mario&lt;div&gt;Melissa Putri (1389438)&lt;/div&gt;" style="text;strokeColor=none;fillColor=none;html=1;fontSize=24;fontStyle=1;verticalAlign=middle;align=center;labelBackgroundColor=none;" vertex="1" parent="1">
          <mxGeometry x="122" y="40" width="1510" height="40" as="geometry" />
        </mxCell>
        <mxCell id="xe9h-zlg3zXrfTwz2U7e-1" value="ShadowMario" style="swimlane;fontStyle=1;align=center;verticalAlign=top;childLayout=stackLayout;horizontal=1;startSize=26;horizontalStack=0;resizeParent=1;resizeParentMax=0;resizeLast=0;collapsible=1;marginBottom=0;whiteSpace=wrap;html=1;labelBackgroundColor=none;" vertex="1" parent="1">
          <mxGeometry x="290" y="80" width="330" height="430" as="geometry">
            <mxRectangle x="752" y="420" width="110" height="30" as="alternateBounds" />
          </mxGeometry>
        </mxCell>
        <mxCell id="xe9h-zlg3zXrfTwz2U7e-2" value="- BACKGROUND_IMAGE: Image&lt;div&gt;- objectPositions: CSVData&lt;/div&gt;&lt;div&gt;- gameStarted: boolean&lt;/div&gt;&lt;div&gt;- gameWon: boolean&lt;/div&gt;&lt;div&gt;- gameLevel: int&lt;/div&gt;&lt;div&gt;- player: Player&lt;/div&gt;&lt;div&gt;- platform: Platform&lt;/div&gt;&lt;div&gt;- enemyBoss: EnemyBoss&lt;/div&gt;&lt;div&gt;- endFlag: EndFlag&lt;/div&gt;&lt;div&gt;- coins: Coin[]&lt;/div&gt;&lt;div&gt;- enemies: Enemy[]&lt;/div&gt;&lt;div&gt;- flyingPlatforms: FlyingPlatform[]&lt;/div&gt;&lt;div&gt;- doubleScores: DoubleScore[]&lt;/div&gt;&lt;div&gt;- invinciblePowers: Invincible[]&lt;/div&gt;&lt;div&gt;&lt;br&gt;&lt;/div&gt;&lt;div&gt;&lt;br&gt;&lt;/div&gt;" style="text;strokeColor=none;fillColor=none;align=left;verticalAlign=top;spacingLeft=4;spacingRight=4;overflow=hidden;rotatable=0;points=[[0,0.5],[1,0.5]];portConstraint=eastwest;whiteSpace=wrap;html=1;labelBackgroundColor=none;" vertex="1" parent="xe9h-zlg3zXrfTwz2U7e-1">
          <mxGeometry y="26" width="330" height="214" as="geometry" />
        </mxCell>
        <mxCell id="xe9h-zlg3zXrfTwz2U7e-3" value="" style="line;strokeWidth=1;fillColor=none;align=left;verticalAlign=middle;spacingTop=-1;spacingLeft=3;spacingRight=3;rotatable=0;labelPosition=right;points=[];portConstraint=eastwest;labelBackgroundColor=none;" vertex="1" parent="xe9h-zlg3zXrfTwz2U7e-1">
          <mxGeometry y="240" width="330" height="8" as="geometry" />
        </mxCell>
        <mxCell id="xe9h-zlg3zXrfTwz2U7e-4" value="&lt;div&gt;&lt;u&gt;+ main(String[]): void&lt;/u&gt;&lt;/div&gt;+ update(Input): void&lt;div&gt;- constructObjects(Properties): void&lt;br&gt;&lt;div&gt;- constructHelper(Properties, int[][], int, Class&amp;lt;&amp;gt;): &amp;lt;T&amp;gt; T[]&lt;/div&gt;&lt;div&gt;- renderObjects(): void&lt;/div&gt;&lt;div&gt;- renderHelper(GameObject[]): void&lt;/div&gt;&lt;div&gt;- updateObjects(Input): void&lt;/div&gt;&lt;div&gt;- updateHelper(GameObject[], Input): void&lt;/div&gt;&lt;div&gt;- checkCollisions(): void&lt;/div&gt;&lt;div&gt;- checkWinLose(): boolean&lt;/div&gt;&lt;div&gt;- reset(): void&lt;/div&gt;&lt;/div&gt;" style="text;strokeColor=none;fillColor=none;align=left;verticalAlign=top;spacingLeft=4;spacingRight=4;overflow=hidden;rotatable=0;points=[[0,0.5],[1,0.5]];portConstraint=eastwest;whiteSpace=wrap;html=1;labelBackgroundColor=none;" vertex="1" parent="xe9h-zlg3zXrfTwz2U7e-1">
          <mxGeometry y="248" width="330" height="182" as="geometry" />
        </mxCell>
        <mxCell id="xe9h-zlg3zXrfTwz2U7e-9" value="&lt;b&gt;CSVData&lt;/b&gt;" style="swimlane;fontStyle=0;childLayout=stackLayout;horizontal=1;startSize=26;fillColor=none;horizontalStack=0;resizeParent=1;resizeParentMax=0;resizeLast=0;collapsible=1;marginBottom=0;whiteSpace=wrap;html=1;" vertex="1" parent="1">
          <mxGeometry x="40" y="184" width="200" height="260" as="geometry" />
        </mxCell>
        <mxCell id="xe9h-zlg3zXrfTwz2U7e-11" value="+ coins: int[][]" style="text;strokeColor=none;fillColor=none;align=left;verticalAlign=top;spacingLeft=4;spacingRight=4;overflow=hidden;rotatable=0;points=[[0,0.5],[1,0.5]];portConstraint=eastwest;whiteSpace=wrap;html=1;" vertex="1" parent="xe9h-zlg3zXrfTwz2U7e-9">
          <mxGeometry y="26" width="200" height="26" as="geometry" />
        </mxCell>
        <mxCell id="xe9h-zlg3zXrfTwz2U7e-12" value="+ enemies: int[][]" style="text;strokeColor=none;fillColor=none;align=left;verticalAlign=top;spacingLeft=4;spacingRight=4;overflow=hidden;rotatable=0;points=[[0,0.5],[1,0.5]];portConstraint=eastwest;whiteSpace=wrap;html=1;" vertex="1" parent="xe9h-zlg3zXrfTwz2U7e-9">
          <mxGeometry y="52" width="200" height="26" as="geometry" />
        </mxCell>
        <mxCell id="xe9h-zlg3zXrfTwz2U7e-16" value="+ flyingPlatforms: int[][]" style="text;strokeColor=none;fillColor=none;align=left;verticalAlign=top;spacingLeft=4;spacingRight=4;overflow=hidden;rotatable=0;points=[[0,0.5],[1,0.5]];portConstraint=eastwest;whiteSpace=wrap;html=1;" vertex="1" parent="xe9h-zlg3zXrfTwz2U7e-9">
          <mxGeometry y="78" width="200" height="26" as="geometry" />
        </mxCell>
        <mxCell id="xe9h-zlg3zXrfTwz2U7e-21" value="+ doubleScore: int[][]" style="text;strokeColor=none;fillColor=none;align=left;verticalAlign=top;spacingLeft=4;spacingRight=4;overflow=hidden;rotatable=0;points=[[0,0.5],[1,0.5]];portConstraint=eastwest;whiteSpace=wrap;html=1;" vertex="1" parent="xe9h-zlg3zXrfTwz2U7e-9">
          <mxGeometry y="104" width="200" height="26" as="geometry" />
        </mxCell>
        <mxCell id="xe9h-zlg3zXrfTwz2U7e-22" value="+ invinciblePower: int[][]" style="text;strokeColor=none;fillColor=none;align=left;verticalAlign=top;spacingLeft=4;spacingRight=4;overflow=hidden;rotatable=0;points=[[0,0.5],[1,0.5]];portConstraint=eastwest;whiteSpace=wrap;html=1;" vertex="1" parent="xe9h-zlg3zXrfTwz2U7e-9">
          <mxGeometry y="130" width="200" height="26" as="geometry" />
        </mxCell>
        <mxCell id="xe9h-zlg3zXrfTwz2U7e-17" value="+ endFlag: int[]" style="text;strokeColor=none;fillColor=none;align=left;verticalAlign=top;spacingLeft=4;spacingRight=4;overflow=hidden;rotatable=0;points=[[0,0.5],[1,0.5]];portConstraint=eastwest;whiteSpace=wrap;html=1;" vertex="1" parent="xe9h-zlg3zXrfTwz2U7e-9">
          <mxGeometry y="156" width="200" height="26" as="geometry" />
        </mxCell>
        <mxCell id="xe9h-zlg3zXrfTwz2U7e-18" value="+ player: int[]" style="text;strokeColor=none;fillColor=none;align=left;verticalAlign=top;spacingLeft=4;spacingRight=4;overflow=hidden;rotatable=0;points=[[0,0.5],[1,0.5]];portConstraint=eastwest;whiteSpace=wrap;html=1;" vertex="1" parent="xe9h-zlg3zXrfTwz2U7e-9">
          <mxGeometry y="182" width="200" height="26" as="geometry" />
        </mxCell>
        <mxCell id="xe9h-zlg3zXrfTwz2U7e-19" value="+ platform: int[]" style="text;strokeColor=none;fillColor=none;align=left;verticalAlign=top;spacingLeft=4;spacingRight=4;overflow=hidden;rotatable=0;points=[[0,0.5],[1,0.5]];portConstraint=eastwest;whiteSpace=wrap;html=1;" vertex="1" parent="xe9h-zlg3zXrfTwz2U7e-9">
          <mxGeometry y="208" width="200" height="26" as="geometry" />
        </mxCell>
        <mxCell id="xe9h-zlg3zXrfTwz2U7e-23" value="+ enemyBoss: int[]" style="text;strokeColor=none;fillColor=none;align=left;verticalAlign=top;spacingLeft=4;spacingRight=4;overflow=hidden;rotatable=0;points=[[0,0.5],[1,0.5]];portConstraint=eastwest;whiteSpace=wrap;html=1;" vertex="1" parent="xe9h-zlg3zXrfTwz2U7e-9">
          <mxGeometry y="234" width="200" height="26" as="geometry" />
        </mxCell>
        <mxCell id="xe9h-zlg3zXrfTwz2U7e-24" value="" style="endArrow=open;endFill=1;endSize=12;html=1;rounded=0;exitX=0.01;exitY=0.997;exitDx=0;exitDy=0;exitPerimeter=0;" edge="1" parent="1" source="xe9h-zlg3zXrfTwz2U7e-2">
          <mxGeometry width="160" relative="1" as="geometry">
            <mxPoint x="350" y="180" as="sourcePoint" />
            <mxPoint x="240" y="320" as="targetPoint" />
          </mxGeometry>
        </mxCell>
        <mxCell id="xe9h-zlg3zXrfTwz2U7e-27" value="IOUtils" style="swimlane;fontStyle=1;align=center;verticalAlign=top;childLayout=stackLayout;horizontal=1;startSize=26;horizontalStack=0;resizeParent=1;resizeParentMax=0;resizeLast=0;collapsible=1;marginBottom=0;whiteSpace=wrap;html=1;" vertex="1" parent="1">
          <mxGeometry x="25" y="60" width="230" height="86" as="geometry" />
        </mxCell>
        <mxCell id="xe9h-zlg3zXrfTwz2U7e-29" value="" style="line;strokeWidth=1;fillColor=none;align=left;verticalAlign=middle;spacingTop=-1;spacingLeft=3;spacingRight=3;rotatable=0;labelPosition=right;points=[];portConstraint=eastwest;strokeColor=inherit;" vertex="1" parent="xe9h-zlg3zXrfTwz2U7e-27">
          <mxGeometry y="26" width="230" height="8" as="geometry" />
        </mxCell>
        <mxCell id="xe9h-zlg3zXrfTwz2U7e-30" value="&lt;u&gt;+ readCSV(String): CSVData&lt;/u&gt;" style="text;strokeColor=none;fillColor=none;align=left;verticalAlign=top;spacingLeft=4;spacingRight=4;overflow=hidden;rotatable=0;points=[[0,0.5],[1,0.5]];portConstraint=eastwest;whiteSpace=wrap;html=1;" vertex="1" parent="xe9h-zlg3zXrfTwz2U7e-27">
          <mxGeometry y="34" width="230" height="26" as="geometry" />
        </mxCell>
        <mxCell id="xe9h-zlg3zXrfTwz2U7e-31" value="&lt;u&gt;+ readPropertiesFile(String): Properties&lt;/u&gt;" style="text;strokeColor=none;fillColor=none;align=left;verticalAlign=top;spacingLeft=4;spacingRight=4;overflow=hidden;rotatable=0;points=[[0,0.5],[1,0.5]];portConstraint=eastwest;whiteSpace=wrap;html=1;" vertex="1" parent="xe9h-zlg3zXrfTwz2U7e-27">
          <mxGeometry y="60" width="230" height="26" as="geometry" />
        </mxCell>
        <mxCell id="xe9h-zlg3zXrfTwz2U7e-33" value="&lt;p style=&quot;margin:0px;margin-top:4px;text-align:center;&quot;&gt;&lt;i&gt;&amp;lt;&amp;lt;Interface&amp;gt;&amp;gt;&lt;/i&gt;&lt;br&gt;&lt;b&gt;Collideable&lt;/b&gt;&lt;/p&gt;&lt;hr size=&quot;1&quot; style=&quot;border-style:solid;&quot;&gt;&lt;p style=&quot;margin:0px;margin-left:4px;&quot;&gt;&amp;nbsp;+ radius: double&lt;/p&gt;&lt;hr size=&quot;1&quot; style=&quot;border-style:solid;&quot;&gt;&lt;p style=&quot;margin:0px;margin-left:4px;&quot;&gt;+ checkCollision(Collideable): boolean&lt;/p&gt;" style="verticalAlign=top;align=left;overflow=fill;html=1;whiteSpace=wrap;" vertex="1" parent="1">
          <mxGeometry x="970" y="300" width="250" height="100" as="geometry" />
        </mxCell>
        <mxCell id="xe9h-zlg3zXrfTwz2U7e-40" value="&lt;div&gt;&lt;i style=&quot;font-weight: 400;&quot;&gt;&amp;lt;&amp;lt; Abstract &amp;gt;&amp;gt;&lt;/i&gt;&lt;br&gt;&lt;/div&gt;Character" style="swimlane;fontStyle=1;align=center;verticalAlign=top;childLayout=stackLayout;horizontal=1;startSize=40;horizontalStack=0;resizeParent=1;resizeParentMax=0;resizeLast=0;collapsible=1;marginBottom=0;whiteSpace=wrap;html=1;" vertex="1" parent="1">
          <mxGeometry x="330" y="640" width="160" height="120" as="geometry" />
        </mxCell>
        <mxCell id="xe9h-zlg3zXrfTwz2U7e-41" value="&lt;div&gt;&lt;span style=&quot;background-color: initial;&quot;&gt;- radius: double&lt;/span&gt;&lt;br&gt;&lt;/div&gt;" style="text;strokeColor=none;fillColor=none;align=left;verticalAlign=top;spacingLeft=4;spacingRight=4;overflow=hidden;rotatable=0;points=[[0,0.5],[1,0.5]];portConstraint=eastwest;whiteSpace=wrap;html=1;" vertex="1" parent="xe9h-zlg3zXrfTwz2U7e-40">
          <mxGeometry y="40" width="160" height="30" as="geometry" />
        </mxCell>
        <mxCell id="xe9h-zlg3zXrfTwz2U7e-42" value="" style="line;strokeWidth=1;fillColor=none;align=left;verticalAlign=middle;spacingTop=-1;spacingLeft=3;spacingRight=3;rotatable=0;labelPosition=right;points=[];portConstraint=eastwest;strokeColor=inherit;" vertex="1" parent="xe9h-zlg3zXrfTwz2U7e-40">
          <mxGeometry y="70" width="160" height="8" as="geometry" />
        </mxCell>
        <mxCell id="xe9h-zlg3zXrfTwz2U7e-43" value="+ move(Input): void&lt;div&gt;+ takeDamage(): void&lt;/div&gt;" style="text;strokeColor=none;fillColor=none;align=left;verticalAlign=top;spacingLeft=4;spacingRight=4;overflow=hidden;rotatable=0;points=[[0,0.5],[1,0.5]];portConstraint=eastwest;whiteSpace=wrap;html=1;" vertex="1" parent="xe9h-zlg3zXrfTwz2U7e-40">
          <mxGeometry y="78" width="160" height="42" as="geometry" />
        </mxCell>
        <mxCell id="xe9h-zlg3zXrfTwz2U7e-44" value="Platform" style="swimlane;fontStyle=1;align=center;verticalAlign=top;childLayout=stackLayout;horizontal=1;startSize=26;horizontalStack=0;resizeParent=1;resizeParentMax=0;resizeLast=0;collapsible=1;marginBottom=0;whiteSpace=wrap;html=1;" vertex="1" parent="1">
          <mxGeometry x="907" y="640" width="160" height="60" as="geometry" />
        </mxCell>
        <mxCell id="xe9h-zlg3zXrfTwz2U7e-46" value="" style="line;strokeWidth=1;fillColor=none;align=left;verticalAlign=middle;spacingTop=-1;spacingLeft=3;spacingRight=3;rotatable=0;labelPosition=right;points=[];portConstraint=eastwest;strokeColor=inherit;" vertex="1" parent="xe9h-zlg3zXrfTwz2U7e-44">
          <mxGeometry y="26" width="160" height="8" as="geometry" />
        </mxCell>
        <mxCell id="xe9h-zlg3zXrfTwz2U7e-47" value="+ move(Input): void" style="text;strokeColor=none;fillColor=none;align=left;verticalAlign=top;spacingLeft=4;spacingRight=4;overflow=hidden;rotatable=0;points=[[0,0.5],[1,0.5]];portConstraint=eastwest;whiteSpace=wrap;html=1;" vertex="1" parent="xe9h-zlg3zXrfTwz2U7e-44">
          <mxGeometry y="34" width="160" height="26" as="geometry" />
        </mxCell>
        <mxCell id="xe9h-zlg3zXrfTwz2U7e-48" value="&lt;div&gt;&lt;i style=&quot;font-weight: 400;&quot;&gt;&amp;lt;&amp;lt; Abstract &amp;gt;&amp;gt;&lt;/i&gt;&lt;br&gt;&lt;/div&gt;Item" style="swimlane;fontStyle=1;align=center;verticalAlign=top;childLayout=stackLayout;horizontal=1;startSize=36;horizontalStack=0;resizeParent=1;resizeParentMax=0;resizeLast=0;collapsible=1;marginBottom=0;whiteSpace=wrap;html=1;" vertex="1" parent="1">
          <mxGeometry x="1370" y="640" width="180" height="70" as="geometry" />
        </mxCell>
        <mxCell id="xe9h-zlg3zXrfTwz2U7e-50" value="" style="line;strokeWidth=1;fillColor=none;align=left;verticalAlign=middle;spacingTop=-1;spacingLeft=3;spacingRight=3;rotatable=0;labelPosition=right;points=[];portConstraint=eastwest;strokeColor=inherit;" vertex="1" parent="xe9h-zlg3zXrfTwz2U7e-48">
          <mxGeometry y="36" width="180" height="8" as="geometry" />
        </mxCell>
        <mxCell id="xe9h-zlg3zXrfTwz2U7e-51" value="+ activate(Player player): void" style="text;strokeColor=none;fillColor=none;align=left;verticalAlign=top;spacingLeft=4;spacingRight=4;overflow=hidden;rotatable=0;points=[[0,0.5],[1,0.5]];portConstraint=eastwest;whiteSpace=wrap;html=1;" vertex="1" parent="xe9h-zlg3zXrfTwz2U7e-48">
          <mxGeometry y="44" width="180" height="26" as="geometry" />
        </mxCell>
        <mxCell id="xe9h-zlg3zXrfTwz2U7e-57" value="&lt;p style=&quot;margin:0px;margin-top:4px;text-align:center;&quot;&gt;&lt;i&gt;&amp;lt;&amp;lt;Interface&amp;gt;&amp;gt;&lt;/i&gt;&lt;br&gt;&lt;b&gt;RandomMoveable&lt;/b&gt;&lt;/p&gt;&lt;hr size=&quot;1&quot; style=&quot;border-style:solid;&quot;&gt;&lt;p style=&quot;margin:0px;margin-left:4px;&quot;&gt;+ randomSpeed: int&lt;/p&gt;&lt;p style=&quot;margin:0px;margin-left:4px;&quot;&gt;+ randomDisplacement: int&lt;/p&gt;&lt;hr size=&quot;1&quot; style=&quot;border-style:solid;&quot;&gt;&lt;p style=&quot;margin:0px;margin-left:4px;&quot;&gt;+ randomMove(): void&lt;/p&gt;" style="verticalAlign=top;align=left;overflow=fill;html=1;whiteSpace=wrap;" vertex="1" parent="1">
          <mxGeometry x="700" y="1060" width="250" height="110" as="geometry" />
        </mxCell>
        <mxCell id="xe9h-zlg3zXrfTwz2U7e-58" value="Coin" style="swimlane;fontStyle=1;align=center;verticalAlign=top;childLayout=stackLayout;horizontal=1;startSize=26;horizontalStack=0;resizeParent=1;resizeParentMax=0;resizeLast=0;collapsible=1;marginBottom=0;whiteSpace=wrap;html=1;" vertex="1" parent="1">
          <mxGeometry x="1340" y="980" width="220" height="110" as="geometry" />
        </mxCell>
        <mxCell id="xe9h-zlg3zXrfTwz2U7e-59" value="- coinValue: int&lt;div&gt;- verticalSpeed: int&lt;/div&gt;" style="text;strokeColor=none;fillColor=none;align=left;verticalAlign=top;spacingLeft=4;spacingRight=4;overflow=hidden;rotatable=0;points=[[0,0.5],[1,0.5]];portConstraint=eastwest;whiteSpace=wrap;html=1;" vertex="1" parent="xe9h-zlg3zXrfTwz2U7e-58">
          <mxGeometry y="26" width="220" height="34" as="geometry" />
        </mxCell>
        <mxCell id="xe9h-zlg3zXrfTwz2U7e-60" value="" style="line;strokeWidth=1;fillColor=none;align=left;verticalAlign=middle;spacingTop=-1;spacingLeft=3;spacingRight=3;rotatable=0;labelPosition=right;points=[];portConstraint=eastwest;strokeColor=inherit;" vertex="1" parent="xe9h-zlg3zXrfTwz2U7e-58">
          <mxGeometry y="60" width="220" height="8" as="geometry" />
        </mxCell>
        <mxCell id="xe9h-zlg3zXrfTwz2U7e-61" value="+ checkCollision(Collideable): boolean&lt;div&gt;+ activate(Player player): void&lt;/div&gt;" style="text;strokeColor=none;fillColor=none;align=left;verticalAlign=top;spacingLeft=4;spacingRight=4;overflow=hidden;rotatable=0;points=[[0,0.5],[1,0.5]];portConstraint=eastwest;whiteSpace=wrap;html=1;" vertex="1" parent="xe9h-zlg3zXrfTwz2U7e-58">
          <mxGeometry y="68" width="220" height="42" as="geometry" />
        </mxCell>
        <mxCell id="xe9h-zlg3zXrfTwz2U7e-66" value="Player" style="swimlane;fontStyle=1;align=center;verticalAlign=top;childLayout=stackLayout;horizontal=1;startSize=26;horizontalStack=0;resizeParent=1;resizeParentMax=0;resizeLast=0;collapsible=1;marginBottom=0;whiteSpace=wrap;html=1;" vertex="1" parent="1">
          <mxGeometry x="270" y="860" width="220" height="220" as="geometry" />
        </mxCell>
        <mxCell id="xe9h-zlg3zXrfTwz2U7e-67" value="&lt;div&gt;- JUMP_SPEED: int&lt;/div&gt;&lt;div&gt;- INITIAL_VERTICAL_SPEED: int&lt;/div&gt;&lt;div&gt;- verticalSpeed: int&lt;/div&gt;- score: int&lt;div&gt;- invincibleOn: boolean&lt;/div&gt;&lt;div&gt;- doubleOn: boolean&lt;/div&gt;&lt;div&gt;- isJumping: boolean&lt;/div&gt;&lt;div&gt;- onPlatform: boolean&lt;/div&gt;&lt;div&gt;- health: int&lt;/div&gt;" style="text;strokeColor=none;fillColor=none;align=left;verticalAlign=top;spacingLeft=4;spacingRight=4;overflow=hidden;rotatable=0;points=[[0,0.5],[1,0.5]];portConstraint=eastwest;whiteSpace=wrap;html=1;" vertex="1" parent="xe9h-zlg3zXrfTwz2U7e-66">
          <mxGeometry y="26" width="220" height="134" as="geometry" />
        </mxCell>
        <mxCell id="xe9h-zlg3zXrfTwz2U7e-68" value="" style="line;strokeWidth=1;fillColor=none;align=left;verticalAlign=middle;spacingTop=-1;spacingLeft=3;spacingRight=3;rotatable=0;labelPosition=right;points=[];portConstraint=eastwest;strokeColor=inherit;" vertex="1" parent="xe9h-zlg3zXrfTwz2U7e-66">
          <mxGeometry y="160" width="220" height="8" as="geometry" />
        </mxCell>
        <mxCell id="xe9h-zlg3zXrfTwz2U7e-69" value="+ checkCollision(Collideable): boolean&lt;div&gt;+ jump(): void&lt;/div&gt;&lt;div&gt;+ move(Input): void&lt;/div&gt;" style="text;strokeColor=none;fillColor=none;align=left;verticalAlign=top;spacingLeft=4;spacingRight=4;overflow=hidden;rotatable=0;points=[[0,0.5],[1,0.5]];portConstraint=eastwest;whiteSpace=wrap;html=1;" vertex="1" parent="xe9h-zlg3zXrfTwz2U7e-66">
          <mxGeometry y="168" width="220" height="52" as="geometry" />
        </mxCell>
        <mxCell id="xe9h-zlg3zXrfTwz2U7e-70" value="EnemyBoss" style="swimlane;fontStyle=1;align=center;verticalAlign=top;childLayout=stackLayout;horizontal=1;startSize=26;horizontalStack=0;resizeParent=1;resizeParentMax=0;resizeLast=0;collapsible=1;marginBottom=0;whiteSpace=wrap;html=1;" vertex="1" parent="1">
          <mxGeometry x="40" y="730" width="220" height="110" as="geometry" />
        </mxCell>
        <mxCell id="xe9h-zlg3zXrfTwz2U7e-71" value="- activationRadius: int&lt;div&gt;- health: int&lt;/div&gt;" style="text;strokeColor=none;fillColor=none;align=left;verticalAlign=top;spacingLeft=4;spacingRight=4;overflow=hidden;rotatable=0;points=[[0,0.5],[1,0.5]];portConstraint=eastwest;whiteSpace=wrap;html=1;" vertex="1" parent="xe9h-zlg3zXrfTwz2U7e-70">
          <mxGeometry y="26" width="220" height="34" as="geometry" />
        </mxCell>
        <mxCell id="xe9h-zlg3zXrfTwz2U7e-72" value="" style="line;strokeWidth=1;fillColor=none;align=left;verticalAlign=middle;spacingTop=-1;spacingLeft=3;spacingRight=3;rotatable=0;labelPosition=right;points=[];portConstraint=eastwest;strokeColor=inherit;" vertex="1" parent="xe9h-zlg3zXrfTwz2U7e-70">
          <mxGeometry y="60" width="220" height="8" as="geometry" />
        </mxCell>
        <mxCell id="xe9h-zlg3zXrfTwz2U7e-73" value="+ checkCollision(Collideable): boolean&lt;div&gt;+ move(Input): void&lt;/div&gt;" style="text;strokeColor=none;fillColor=none;align=left;verticalAlign=top;spacingLeft=4;spacingRight=4;overflow=hidden;rotatable=0;points=[[0,0.5],[1,0.5]];portConstraint=eastwest;whiteSpace=wrap;html=1;" vertex="1" parent="xe9h-zlg3zXrfTwz2U7e-70">
          <mxGeometry y="68" width="220" height="42" as="geometry" />
        </mxCell>
        <mxCell id="xe9h-zlg3zXrfTwz2U7e-74" value="Enemy" style="swimlane;fontStyle=1;align=center;verticalAlign=top;childLayout=stackLayout;horizontal=1;startSize=26;horizontalStack=0;resizeParent=1;resizeParentMax=0;resizeLast=0;collapsible=1;marginBottom=0;whiteSpace=wrap;html=1;" vertex="1" parent="1">
          <mxGeometry x="520" y="830" width="220" height="100" as="geometry" />
        </mxCell>
        <mxCell id="xe9h-zlg3zXrfTwz2U7e-75" value="- damageSize: double&lt;div&gt;&lt;br&gt;&lt;/div&gt;" style="text;strokeColor=none;fillColor=none;align=left;verticalAlign=top;spacingLeft=4;spacingRight=4;overflow=hidden;rotatable=0;points=[[0,0.5],[1,0.5]];portConstraint=eastwest;whiteSpace=wrap;html=1;" vertex="1" parent="xe9h-zlg3zXrfTwz2U7e-74">
          <mxGeometry y="26" width="220" height="24" as="geometry" />
        </mxCell>
        <mxCell id="xe9h-zlg3zXrfTwz2U7e-76" value="" style="line;strokeWidth=1;fillColor=none;align=left;verticalAlign=middle;spacingTop=-1;spacingLeft=3;spacingRight=3;rotatable=0;labelPosition=right;points=[];portConstraint=eastwest;strokeColor=inherit;" vertex="1" parent="xe9h-zlg3zXrfTwz2U7e-74">
          <mxGeometry y="50" width="220" height="8" as="geometry" />
        </mxCell>
        <mxCell id="xe9h-zlg3zXrfTwz2U7e-77" value="+ checkCollision(Collideable): boolean&lt;div&gt;+ move(Input): void&lt;/div&gt;" style="text;strokeColor=none;fillColor=none;align=left;verticalAlign=top;spacingLeft=4;spacingRight=4;overflow=hidden;rotatable=0;points=[[0,0.5],[1,0.5]];portConstraint=eastwest;whiteSpace=wrap;html=1;" vertex="1" parent="xe9h-zlg3zXrfTwz2U7e-74">
          <mxGeometry y="58" width="220" height="42" as="geometry" />
        </mxCell>
        <mxCell id="xe9h-zlg3zXrfTwz2U7e-78" value="FlyingPlatform" style="swimlane;fontStyle=1;align=center;verticalAlign=top;childLayout=stackLayout;horizontal=1;startSize=26;horizontalStack=0;resizeParent=1;resizeParentMax=0;resizeLast=0;collapsible=1;marginBottom=0;whiteSpace=wrap;html=1;" vertex="1" parent="1">
          <mxGeometry x="877" y="810" width="220" height="94" as="geometry" />
        </mxCell>
        <mxCell id="xe9h-zlg3zXrfTwz2U7e-79" value="&lt;u&gt;- HALF_LENGTH: int&lt;/u&gt;&lt;div&gt;&lt;u&gt;- HALF_WIDTH: int&lt;/u&gt;&lt;/div&gt;" style="text;strokeColor=none;fillColor=none;align=left;verticalAlign=top;spacingLeft=4;spacingRight=4;overflow=hidden;rotatable=0;points=[[0,0.5],[1,0.5]];portConstraint=eastwest;whiteSpace=wrap;html=1;" vertex="1" parent="xe9h-zlg3zXrfTwz2U7e-78">
          <mxGeometry y="26" width="220" height="34" as="geometry" />
        </mxCell>
        <mxCell id="xe9h-zlg3zXrfTwz2U7e-80" value="" style="line;strokeWidth=1;fillColor=none;align=left;verticalAlign=middle;spacingTop=-1;spacingLeft=3;spacingRight=3;rotatable=0;labelPosition=right;points=[];portConstraint=eastwest;strokeColor=inherit;" vertex="1" parent="xe9h-zlg3zXrfTwz2U7e-78">
          <mxGeometry y="60" width="220" height="8" as="geometry" />
        </mxCell>
        <mxCell id="xe9h-zlg3zXrfTwz2U7e-81" value="+ move(Input): void" style="text;strokeColor=none;fillColor=none;align=left;verticalAlign=top;spacingLeft=4;spacingRight=4;overflow=hidden;rotatable=0;points=[[0,0.5],[1,0.5]];portConstraint=eastwest;whiteSpace=wrap;html=1;" vertex="1" parent="xe9h-zlg3zXrfTwz2U7e-78">
          <mxGeometry y="68" width="220" height="26" as="geometry" />
        </mxCell>
        <mxCell id="xe9h-zlg3zXrfTwz2U7e-82" value="Invincible" style="swimlane;fontStyle=1;align=center;verticalAlign=top;childLayout=stackLayout;horizontal=1;startSize=26;horizontalStack=0;resizeParent=1;resizeParentMax=0;resizeLast=0;collapsible=1;marginBottom=0;whiteSpace=wrap;html=1;" vertex="1" parent="1">
          <mxGeometry x="1180" y="850" width="220" height="80" as="geometry" />
        </mxCell>
        <mxCell id="xe9h-zlg3zXrfTwz2U7e-84" value="" style="line;strokeWidth=1;fillColor=none;align=left;verticalAlign=middle;spacingTop=-1;spacingLeft=3;spacingRight=3;rotatable=0;labelPosition=right;points=[];portConstraint=eastwest;strokeColor=inherit;" vertex="1" parent="xe9h-zlg3zXrfTwz2U7e-82">
          <mxGeometry y="26" width="220" height="8" as="geometry" />
        </mxCell>
        <mxCell id="xe9h-zlg3zXrfTwz2U7e-85" value="+ checkCollision(Collideable): boolean&lt;div&gt;+ activate(Player player): void&lt;/div&gt;" style="text;strokeColor=none;fillColor=none;align=left;verticalAlign=top;spacingLeft=4;spacingRight=4;overflow=hidden;rotatable=0;points=[[0,0.5],[1,0.5]];portConstraint=eastwest;whiteSpace=wrap;html=1;" vertex="1" parent="xe9h-zlg3zXrfTwz2U7e-82">
          <mxGeometry y="34" width="220" height="46" as="geometry" />
        </mxCell>
        <mxCell id="xe9h-zlg3zXrfTwz2U7e-87" value="Fireball" style="swimlane;fontStyle=1;align=center;verticalAlign=top;childLayout=stackLayout;horizontal=1;startSize=26;horizontalStack=0;resizeParent=1;resizeParentMax=0;resizeLast=0;collapsible=1;marginBottom=0;whiteSpace=wrap;html=1;" vertex="1" parent="1">
          <mxGeometry x="630" y="680" width="220" height="100" as="geometry" />
        </mxCell>
        <mxCell id="xe9h-zlg3zXrfTwz2U7e-88" value="- damageSize: double" style="text;strokeColor=none;fillColor=none;align=left;verticalAlign=top;spacingLeft=4;spacingRight=4;overflow=hidden;rotatable=0;points=[[0,0.5],[1,0.5]];portConstraint=eastwest;whiteSpace=wrap;html=1;" vertex="1" parent="xe9h-zlg3zXrfTwz2U7e-87">
          <mxGeometry y="26" width="220" height="24" as="geometry" />
        </mxCell>
        <mxCell id="xe9h-zlg3zXrfTwz2U7e-89" value="" style="line;strokeWidth=1;fillColor=none;align=left;verticalAlign=middle;spacingTop=-1;spacingLeft=3;spacingRight=3;rotatable=0;labelPosition=right;points=[];portConstraint=eastwest;strokeColor=inherit;" vertex="1" parent="xe9h-zlg3zXrfTwz2U7e-87">
          <mxGeometry y="50" width="220" height="8" as="geometry" />
        </mxCell>
        <mxCell id="xe9h-zlg3zXrfTwz2U7e-90" value="+ checkCollision(Collideable): boolean&lt;div&gt;+ move(Input): void&lt;/div&gt;" style="text;strokeColor=none;fillColor=none;align=left;verticalAlign=top;spacingLeft=4;spacingRight=4;overflow=hidden;rotatable=0;points=[[0,0.5],[1,0.5]];portConstraint=eastwest;whiteSpace=wrap;html=1;" vertex="1" parent="xe9h-zlg3zXrfTwz2U7e-87">
          <mxGeometry y="58" width="220" height="42" as="geometry" />
        </mxCell>
        <mxCell id="xe9h-zlg3zXrfTwz2U7e-91" value="DoubleScore" style="swimlane;fontStyle=1;align=center;verticalAlign=top;childLayout=stackLayout;horizontal=1;startSize=26;horizontalStack=0;resizeParent=1;resizeParentMax=0;resizeLast=0;collapsible=1;marginBottom=0;whiteSpace=wrap;html=1;" vertex="1" parent="1">
          <mxGeometry x="1520" y="850" width="220" height="80" as="geometry" />
        </mxCell>
        <mxCell id="xe9h-zlg3zXrfTwz2U7e-93" value="" style="line;strokeWidth=1;fillColor=none;align=left;verticalAlign=middle;spacingTop=-1;spacingLeft=3;spacingRight=3;rotatable=0;labelPosition=right;points=[];portConstraint=eastwest;strokeColor=inherit;" vertex="1" parent="xe9h-zlg3zXrfTwz2U7e-91">
          <mxGeometry y="26" width="220" height="8" as="geometry" />
        </mxCell>
        <mxCell id="xe9h-zlg3zXrfTwz2U7e-94" value="+ checkCollision(Collideable): boolean&lt;div&gt;+ activate(Player player): void&lt;/div&gt;" style="text;strokeColor=none;fillColor=none;align=left;verticalAlign=top;spacingLeft=4;spacingRight=4;overflow=hidden;rotatable=0;points=[[0,0.5],[1,0.5]];portConstraint=eastwest;whiteSpace=wrap;html=1;" vertex="1" parent="xe9h-zlg3zXrfTwz2U7e-91">
          <mxGeometry y="34" width="220" height="46" as="geometry" />
        </mxCell>
        <mxCell id="xe9h-zlg3zXrfTwz2U7e-95" value="DisplayManager" style="swimlane;fontStyle=1;align=center;verticalAlign=top;childLayout=stackLayout;horizontal=1;startSize=26;horizontalStack=0;resizeParent=1;resizeParentMax=0;resizeLast=0;collapsible=1;marginBottom=0;whiteSpace=wrap;html=1;" vertex="1" parent="1">
          <mxGeometry x="1310" y="170" width="280" height="250" as="geometry" />
        </mxCell>
        <mxCell id="xe9h-zlg3zXrfTwz2U7e-96" value="- BACKGROUND_IMAGE: Image&lt;div&gt;- titleFont: Font&lt;/div&gt;&lt;div&gt;- messageFont: Font&lt;/div&gt;&lt;div&gt;- healthFont: Font&lt;/div&gt;&lt;div&gt;- scoreFont: Font&lt;/div&gt;&lt;div&gt;- insFont: Font&lt;/div&gt;&lt;div&gt;- enemyHealthFont: Font&lt;/div&gt;&lt;div&gt;- messageProps: Properties&lt;/div&gt;&lt;div&gt;- gameProps: Properties&lt;/div&gt;&lt;div&gt;&lt;br&gt;&lt;/div&gt;" style="text;strokeColor=none;fillColor=none;align=left;verticalAlign=top;spacingLeft=4;spacingRight=4;overflow=hidden;rotatable=0;points=[[0,0.5],[1,0.5]];portConstraint=eastwest;whiteSpace=wrap;html=1;" vertex="1" parent="xe9h-zlg3zXrfTwz2U7e-95">
          <mxGeometry y="26" width="280" height="144" as="geometry" />
        </mxCell>
        <mxCell id="xe9h-zlg3zXrfTwz2U7e-97" value="" style="line;strokeWidth=1;fillColor=none;align=left;verticalAlign=middle;spacingTop=-1;spacingLeft=3;spacingRight=3;rotatable=0;labelPosition=right;points=[];portConstraint=eastwest;strokeColor=inherit;" vertex="1" parent="xe9h-zlg3zXrfTwz2U7e-95">
          <mxGeometry y="170" width="280" height="8" as="geometry" />
        </mxCell>
        <mxCell id="xe9h-zlg3zXrfTwz2U7e-98" value="+ renderStartScreen(): void&lt;div&gt;+ renderGameScreen(Player, BossEnemy): void&lt;/div&gt;&lt;div&gt;+ renderWinScreen(): void&lt;/div&gt;&lt;div&gt;+ renderLoseScreen()&lt;/div&gt;" style="text;strokeColor=none;fillColor=none;align=left;verticalAlign=top;spacingLeft=4;spacingRight=4;overflow=hidden;rotatable=0;points=[[0,0.5],[1,0.5]];portConstraint=eastwest;whiteSpace=wrap;html=1;" vertex="1" parent="xe9h-zlg3zXrfTwz2U7e-95">
          <mxGeometry y="178" width="280" height="72" as="geometry" />
        </mxCell>
        <mxCell id="dMdLlS4rwpbIWHJ7eP8S-1" value="&lt;p style=&quot;margin:0px;margin-top:4px;text-align:center;&quot;&gt;&lt;i&gt;&amp;lt;&amp;lt;Abstract&amp;gt;&amp;gt;&lt;/i&gt;&lt;br&gt;&lt;b&gt;GameObject&lt;/b&gt;&lt;/p&gt;&lt;hr size=&quot;1&quot; style=&quot;border-style:solid;&quot;&gt;&lt;p style=&quot;margin:0px;margin-left:4px;&quot;&gt;- position: Point&lt;/p&gt;&lt;div&gt;&amp;nbsp;- image: Image&lt;/div&gt;&lt;div&gt;&amp;nbsp;- gameProps: Properties&lt;/div&gt;&lt;div&gt;&amp;nbsp;- initialPosition: Point&lt;/div&gt;&lt;div&gt;&amp;nbsp;- speed: int&lt;/div&gt;&lt;hr size=&quot;1&quot; style=&quot;border-style:solid;&quot;&gt;&lt;p style=&quot;margin:0px;margin-left:4px;&quot;&gt;+ render(): void&lt;/p&gt;&lt;p style=&quot;margin:0px;margin-left:4px;&quot;&gt;+ move(Input): void&lt;/p&gt;" style="verticalAlign=top;align=left;overflow=fill;html=1;whiteSpace=wrap;" vertex="1" parent="1">
          <mxGeometry x="680" y="265" width="190" height="170" as="geometry" />
        </mxCell>
        <mxCell id="dMdLlS4rwpbIWHJ7eP8S-6" value="" style="endArrow=open;endFill=1;endSize=12;html=1;rounded=0;" edge="1" parent="1">
          <mxGeometry width="160" relative="1" as="geometry">
            <mxPoint x="620" y="320" as="sourcePoint" />
            <mxPoint x="680" y="320" as="targetPoint" />
          </mxGeometry>
        </mxCell>
        <mxCell id="dMdLlS4rwpbIWHJ7eP8S-13" value="" style="endArrow=none;html=1;rounded=0;" edge="1" parent="1">
          <mxGeometry width="50" height="50" relative="1" as="geometry">
            <mxPoint x="400" y="610" as="sourcePoint" />
            <mxPoint x="1450" y="610" as="targetPoint" />
          </mxGeometry>
        </mxCell>
        <mxCell id="dMdLlS4rwpbIWHJ7eP8S-14" value="" style="endArrow=none;html=1;rounded=0;exitX=0.431;exitY=0.01;exitDx=0;exitDy=0;exitPerimeter=0;" edge="1" parent="1" source="xe9h-zlg3zXrfTwz2U7e-40">
          <mxGeometry width="50" height="50" relative="1" as="geometry">
            <mxPoint x="400" y="630" as="sourcePoint" />
            <mxPoint x="400" y="610" as="targetPoint" />
          </mxGeometry>
        </mxCell>
        <mxCell id="dMdLlS4rwpbIWHJ7eP8S-16" value="" style="endArrow=none;html=1;rounded=0;" edge="1" parent="1">
          <mxGeometry width="50" height="50" relative="1" as="geometry">
            <mxPoint x="1039.44" y="640" as="sourcePoint" />
            <mxPoint x="1039" y="610" as="targetPoint" />
          </mxGeometry>
        </mxCell>
        <mxCell id="dMdLlS4rwpbIWHJ7eP8S-17" value="" style="endArrow=none;html=1;rounded=0;" edge="1" parent="1">
          <mxGeometry width="50" height="50" relative="1" as="geometry">
            <mxPoint x="1449.75" y="640" as="sourcePoint" />
            <mxPoint x="1450" y="610" as="targetPoint" />
          </mxGeometry>
        </mxCell>
        <mxCell id="dMdLlS4rwpbIWHJ7eP8S-18" value="Extends" style="endArrow=block;endSize=16;endFill=0;html=1;rounded=0;entryX=0.5;entryY=1;entryDx=0;entryDy=0;" edge="1" parent="1" target="dMdLlS4rwpbIWHJ7eP8S-1">
          <mxGeometry width="160" relative="1" as="geometry">
            <mxPoint x="775" y="610" as="sourcePoint" />
            <mxPoint x="860" y="480" as="targetPoint" />
          </mxGeometry>
        </mxCell>
        <mxCell id="dMdLlS4rwpbIWHJ7eP8S-19" value="" style="endArrow=block;dashed=1;endFill=0;endSize=12;html=1;rounded=0;entryX=0.5;entryY=1;entryDx=0;entryDy=0;" edge="1" parent="1" target="xe9h-zlg3zXrfTwz2U7e-33">
          <mxGeometry width="160" relative="1" as="geometry">
            <mxPoint x="1095" y="590" as="sourcePoint" />
            <mxPoint x="1120" y="460" as="targetPoint" />
          </mxGeometry>
        </mxCell>
        <mxCell id="dMdLlS4rwpbIWHJ7eP8S-20" value="" style="endArrow=none;dashed=1;html=1;rounded=0;" edge="1" parent="1">
          <mxGeometry width="50" height="50" relative="1" as="geometry">
            <mxPoint x="420" y="590" as="sourcePoint" />
            <mxPoint x="1400" y="590" as="targetPoint" />
          </mxGeometry>
        </mxCell>
        <mxCell id="dMdLlS4rwpbIWHJ7eP8S-21" value="" style="endArrow=none;dashed=1;html=1;rounded=0;" edge="1" parent="1">
          <mxGeometry width="50" height="50" relative="1" as="geometry">
            <mxPoint x="420" y="640" as="sourcePoint" />
            <mxPoint x="420" y="590" as="targetPoint" />
          </mxGeometry>
        </mxCell>
        <mxCell id="dMdLlS4rwpbIWHJ7eP8S-23" value="" style="endArrow=none;dashed=1;html=1;rounded=0;exitX=0.172;exitY=-0.014;exitDx=0;exitDy=0;exitPerimeter=0;" edge="1" parent="1" source="xe9h-zlg3zXrfTwz2U7e-48">
          <mxGeometry width="50" height="50" relative="1" as="geometry">
            <mxPoint x="1400" y="630" as="sourcePoint" />
            <mxPoint x="1400" y="590" as="targetPoint" />
          </mxGeometry>
        </mxCell>
        <mxCell id="dMdLlS4rwpbIWHJ7eP8S-24" value="Extends" style="endArrow=block;endSize=16;endFill=0;html=1;rounded=0;entryX=0.325;entryY=1.004;entryDx=0;entryDy=0;entryPerimeter=0;exitX=0.5;exitY=0;exitDx=0;exitDy=0;" edge="1" parent="1" source="xe9h-zlg3zXrfTwz2U7e-66" target="xe9h-zlg3zXrfTwz2U7e-43">
          <mxGeometry x="0.001" width="160" relative="1" as="geometry">
            <mxPoint x="370" y="890" as="sourcePoint" />
            <mxPoint x="380" y="740" as="targetPoint" />
            <mxPoint as="offset" />
          </mxGeometry>
        </mxCell>
        <mxCell id="dMdLlS4rwpbIWHJ7eP8S-25" value="&lt;p style=&quot;margin:0px;margin-top:4px;text-align:center;&quot;&gt;&lt;i&gt;&amp;lt;&amp;lt;Interface&amp;gt;&amp;gt;&lt;/i&gt;&lt;br&gt;&lt;b&gt;Shootable&lt;/b&gt;&lt;/p&gt;&lt;hr size=&quot;1&quot; style=&quot;border-style:solid;&quot;&gt;&lt;p style=&quot;margin:0px;margin-left:4px;&quot;&gt;&amp;nbsp;+ fireball: Fireball&lt;br&gt;&lt;/p&gt;&lt;hr size=&quot;1&quot; style=&quot;border-style:solid;&quot;&gt;&lt;p style=&quot;margin:0px;margin-left:4px;&quot;&gt;+ shootFireball(): void&lt;/p&gt;" style="verticalAlign=top;align=left;overflow=fill;html=1;whiteSpace=wrap;" vertex="1" parent="1">
          <mxGeometry x="20" y="1090" width="250" height="100" as="geometry" />
        </mxCell>
        <mxCell id="dMdLlS4rwpbIWHJ7eP8S-34" value="" style="endArrow=open;endFill=1;endSize=12;html=1;rounded=0;entryX=-0.002;entryY=0.009;entryDx=0;entryDy=0;entryPerimeter=0;exitX=1.003;exitY=0.437;exitDx=0;exitDy=0;exitPerimeter=0;" edge="1" parent="1" source="xe9h-zlg3zXrfTwz2U7e-2" target="xe9h-zlg3zXrfTwz2U7e-96">
          <mxGeometry width="160" relative="1" as="geometry">
            <mxPoint x="630" y="197" as="sourcePoint" />
            <mxPoint x="970" y="290" as="targetPoint" />
            <Array as="points">
              <mxPoint x="670" y="200" />
            </Array>
          </mxGeometry>
        </mxCell>
        <mxCell id="dMdLlS4rwpbIWHJ7eP8S-35" value="Extends" style="endArrow=block;endSize=16;endFill=0;html=1;rounded=0;exitX=0.5;exitY=0;exitDx=0;exitDy=0;entryX=0;entryY=0.5;entryDx=0;entryDy=0;" edge="1" parent="1" source="xe9h-zlg3zXrfTwz2U7e-70" target="xe9h-zlg3zXrfTwz2U7e-41">
          <mxGeometry width="160" relative="1" as="geometry">
            <mxPoint x="330" y="840" as="sourcePoint" />
            <mxPoint x="490" y="840" as="targetPoint" />
          </mxGeometry>
        </mxCell>
        <mxCell id="dMdLlS4rwpbIWHJ7eP8S-36" value="Extends" style="endArrow=block;endSize=16;endFill=0;html=1;rounded=0;entryX=1;entryY=0.5;entryDx=0;entryDy=0;exitX=0.5;exitY=0;exitDx=0;exitDy=0;" edge="1" parent="1" source="xe9h-zlg3zXrfTwz2U7e-74" target="xe9h-zlg3zXrfTwz2U7e-41">
          <mxGeometry width="160" relative="1" as="geometry">
            <mxPoint x="330" y="840" as="sourcePoint" />
            <mxPoint x="490" y="840" as="targetPoint" />
          </mxGeometry>
        </mxCell>
        <mxCell id="dMdLlS4rwpbIWHJ7eP8S-37" value="" style="endArrow=block;dashed=1;endFill=0;endSize=12;html=1;rounded=0;exitX=0.472;exitY=1.077;exitDx=0;exitDy=0;exitPerimeter=0;entryX=-0.022;entryY=0.361;entryDx=0;entryDy=0;entryPerimeter=0;" edge="1" parent="1" source="xe9h-zlg3zXrfTwz2U7e-77" target="xe9h-zlg3zXrfTwz2U7e-57">
          <mxGeometry width="160" relative="1" as="geometry">
            <mxPoint x="330" y="840" as="sourcePoint" />
            <mxPoint x="490" y="840" as="targetPoint" />
            <Array as="points">
              <mxPoint x="624" y="1100" />
            </Array>
          </mxGeometry>
        </mxCell>
        <mxCell id="dMdLlS4rwpbIWHJ7eP8S-38" value="" style="endArrow=block;dashed=1;endFill=0;endSize=12;html=1;rounded=0;exitX=0.169;exitY=1.087;exitDx=0;exitDy=0;exitPerimeter=0;entryX=0.228;entryY=-0.021;entryDx=0;entryDy=0;entryPerimeter=0;" edge="1" parent="1" source="xe9h-zlg3zXrfTwz2U7e-73" target="dMdLlS4rwpbIWHJ7eP8S-25">
          <mxGeometry width="160" relative="1" as="geometry">
            <mxPoint x="350" y="950" as="sourcePoint" />
            <mxPoint x="510" y="950" as="targetPoint" />
          </mxGeometry>
        </mxCell>
        <mxCell id="dMdLlS4rwpbIWHJ7eP8S-39" value="" style="endArrow=block;dashed=1;endFill=0;endSize=12;html=1;rounded=0;entryX=0.5;entryY=0;entryDx=0;entryDy=0;exitX=-0.001;exitY=0.544;exitDx=0;exitDy=0;exitPerimeter=0;" edge="1" parent="1" source="xe9h-zlg3zXrfTwz2U7e-67" target="dMdLlS4rwpbIWHJ7eP8S-25">
          <mxGeometry width="160" relative="1" as="geometry">
            <mxPoint x="250" y="960" as="sourcePoint" />
            <mxPoint x="145" y="1080" as="targetPoint" />
            <Array as="points">
              <mxPoint x="145" y="960" />
            </Array>
          </mxGeometry>
        </mxCell>
        <mxCell id="dMdLlS4rwpbIWHJ7eP8S-40" value="Extends" style="endArrow=block;endSize=16;endFill=0;html=1;rounded=0;entryX=0.498;entryY=1.096;entryDx=0;entryDy=0;entryPerimeter=0;exitX=0.536;exitY=-0.03;exitDx=0;exitDy=0;exitPerimeter=0;" edge="1" parent="1" source="xe9h-zlg3zXrfTwz2U7e-58" target="xe9h-zlg3zXrfTwz2U7e-51">
          <mxGeometry x="0.6655" width="160" relative="1" as="geometry">
            <mxPoint x="1410" y="770" as="sourcePoint" />
            <mxPoint x="1570" y="770" as="targetPoint" />
            <mxPoint as="offset" />
          </mxGeometry>
        </mxCell>
        <mxCell id="dMdLlS4rwpbIWHJ7eP8S-42" value="" style="endArrow=none;html=1;rounded=0;" edge="1" parent="1">
          <mxGeometry width="50" height="50" relative="1" as="geometry">
            <mxPoint x="1280" y="820" as="sourcePoint" />
            <mxPoint x="1640" y="820" as="targetPoint" />
          </mxGeometry>
        </mxCell>
        <mxCell id="dMdLlS4rwpbIWHJ7eP8S-43" value="" style="endArrow=none;html=1;rounded=0;exitX=0.455;exitY=0;exitDx=0;exitDy=0;exitPerimeter=0;" edge="1" parent="1" source="xe9h-zlg3zXrfTwz2U7e-82">
          <mxGeometry width="50" height="50" relative="1" as="geometry">
            <mxPoint x="1470" y="890" as="sourcePoint" />
            <mxPoint x="1280" y="820" as="targetPoint" />
          </mxGeometry>
        </mxCell>
        <mxCell id="dMdLlS4rwpbIWHJ7eP8S-44" value="" style="endArrow=none;html=1;rounded=0;exitX=0.455;exitY=0;exitDx=0;exitDy=0;exitPerimeter=0;" edge="1" parent="1">
          <mxGeometry width="50" height="50" relative="1" as="geometry">
            <mxPoint x="1640" y="850" as="sourcePoint" />
            <mxPoint x="1640" y="820" as="targetPoint" />
          </mxGeometry>
        </mxCell>
        <mxCell id="dMdLlS4rwpbIWHJ7eP8S-45" value="" style="endArrow=block;dashed=1;endFill=0;endSize=12;html=1;rounded=0;exitX=0.047;exitY=1.156;exitDx=0;exitDy=0;exitPerimeter=0;entryX=0.75;entryY=0;entryDx=0;entryDy=0;" edge="1" parent="1" source="xe9h-zlg3zXrfTwz2U7e-81" target="xe9h-zlg3zXrfTwz2U7e-57">
          <mxGeometry width="160" relative="1" as="geometry">
            <mxPoint x="710" y="880" as="sourcePoint" />
            <mxPoint x="870" y="880" as="targetPoint" />
          </mxGeometry>
        </mxCell>
        <mxCell id="dMdLlS4rwpbIWHJ7eP8S-46" value="Extends" style="endArrow=block;endSize=16;endFill=0;html=1;rounded=0;entryX=0.388;entryY=1.107;entryDx=0;entryDy=0;entryPerimeter=0;exitX=0.418;exitY=-0.049;exitDx=0;exitDy=0;exitPerimeter=0;" edge="1" parent="1" source="xe9h-zlg3zXrfTwz2U7e-78" target="xe9h-zlg3zXrfTwz2U7e-47">
          <mxGeometry width="160" relative="1" as="geometry">
            <mxPoint x="710" y="810" as="sourcePoint" />
            <mxPoint x="870" y="810" as="targetPoint" />
          </mxGeometry>
        </mxCell>
        <mxCell id="dMdLlS4rwpbIWHJ7eP8S-47" value="EndFlag" style="swimlane;fontStyle=1;align=center;verticalAlign=top;childLayout=stackLayout;horizontal=1;startSize=26;horizontalStack=0;resizeParent=1;resizeParentMax=0;resizeLast=0;collapsible=1;marginBottom=0;whiteSpace=wrap;html=1;" vertex="1" parent="1">
          <mxGeometry x="1110" y="640" width="220" height="76" as="geometry" />
        </mxCell>
        <mxCell id="dMdLlS4rwpbIWHJ7eP8S-49" value="" style="line;strokeWidth=1;fillColor=none;align=left;verticalAlign=middle;spacingTop=-1;spacingLeft=3;spacingRight=3;rotatable=0;labelPosition=right;points=[];portConstraint=eastwest;strokeColor=inherit;" vertex="1" parent="dMdLlS4rwpbIWHJ7eP8S-47">
          <mxGeometry y="26" width="220" height="8" as="geometry" />
        </mxCell>
        <mxCell id="dMdLlS4rwpbIWHJ7eP8S-50" value="+ checkCollision(Collideable): boolean&lt;div&gt;+ move(Input): void&lt;/div&gt;" style="text;strokeColor=none;fillColor=none;align=left;verticalAlign=top;spacingLeft=4;spacingRight=4;overflow=hidden;rotatable=0;points=[[0,0.5],[1,0.5]];portConstraint=eastwest;whiteSpace=wrap;html=1;" vertex="1" parent="dMdLlS4rwpbIWHJ7eP8S-47">
          <mxGeometry y="34" width="220" height="42" as="geometry" />
        </mxCell>
        <mxCell id="dMdLlS4rwpbIWHJ7eP8S-51" value="" style="endArrow=none;dashed=1;html=1;rounded=0;exitX=0.628;exitY=-0.003;exitDx=0;exitDy=0;exitPerimeter=0;" edge="1" parent="1">
          <mxGeometry width="50" height="50" relative="1" as="geometry">
            <mxPoint x="1160" y="640" as="sourcePoint" />
            <mxPoint x="1160" y="590" as="targetPoint" />
          </mxGeometry>
        </mxCell>
        <mxCell id="dMdLlS4rwpbIWHJ7eP8S-52" value="" style="endArrow=none;html=1;rounded=0;" edge="1" parent="1">
          <mxGeometry width="50" height="50" relative="1" as="geometry">
            <mxPoint x="1210" y="640" as="sourcePoint" />
            <mxPoint x="1210" y="610" as="targetPoint" />
          </mxGeometry>
        </mxCell>
        <mxCell id="T-_r40JTOkMNPepKaqqs-2" value="Extends" style="endArrow=block;endSize=16;endFill=0;html=1;rounded=0;exitX=0;exitY=0.25;exitDx=0;exitDy=0;entryX=1.01;entryY=0.104;entryDx=0;entryDy=0;entryPerimeter=0;" edge="1" parent="1" source="xe9h-zlg3zXrfTwz2U7e-87" target="xe9h-zlg3zXrfTwz2U7e-40">
          <mxGeometry width="160" relative="1" as="geometry">
            <mxPoint x="540" y="800" as="sourcePoint" />
            <mxPoint x="490" y="605" as="targetPoint" />
          </mxGeometry>
        </mxCell>
        <mxCell id="VdMJUwSu79Y_0FvbnWaW-2" value="1" style="text;html=1;align=center;verticalAlign=middle;whiteSpace=wrap;rounded=0;" vertex="1" parent="1">
          <mxGeometry x="246" y="318" width="30" height="25" as="geometry" />
        </mxCell>
        <mxCell id="VdMJUwSu79Y_0FvbnWaW-4" value="1" style="text;html=1;align=center;verticalAlign=middle;whiteSpace=wrap;rounded=0;" vertex="1" parent="1">
          <mxGeometry x="1272" y="196" width="30" height="25" as="geometry" />
        </mxCell>
        <mxCell id="5KpDMZjIB5NaISoA6T9v-1" value="" style="endArrow=open;endFill=1;endSize=12;html=1;rounded=0;entryX=1;entryY=0.5;entryDx=0;entryDy=0;exitX=-0.006;exitY=0;exitDx=0;exitDy=0;exitPerimeter=0;" edge="1" parent="1" source="xe9h-zlg3zXrfTwz2U7e-2" target="xe9h-zlg3zXrfTwz2U7e-30">
          <mxGeometry width="160" relative="1" as="geometry">
            <mxPoint x="530" y="300" as="sourcePoint" />
            <mxPoint x="690" y="300" as="targetPoint" />
          </mxGeometry>
        </mxCell>
      </root>
    </mxGraphModel>
  </diagram>
</mxfile>
